<?xml version="1.0" standalone="no"?><!DOCTYPE svg PUBLIC "-//W3C//DTD SVG 1.1//EN" "http://www.w3.org/Graphics/SVG/1.1/DTD/svg11.dtd"><svg width="200" height="200" viewBox="0 0 200 200" version="1.1" xmlns="http://www.w3.org/2000/svg" xmlns:xlink="http://www.w3.org/1999/xlink"><defs><style type="text/css"><![CDATA[
@font-face { font-family: ifont; src: url("//at.alicdn.com/t/font_1442373896_4754455.eot?#iefix") format("embedded-opentype"), url("//at.alicdn.com/t/font_1442373896_4754455.woff") format("woff"), url("//at.alicdn.com/t/font_1442373896_4754455.ttf") format("truetype"), url("//at.alicdn.com/t/font_1442373896_4754455.svg#ifont") format("svg"); }

]]></style></defs><g class="transform-group"><g transform="scale(0.1953125, 0.1953125)"><path d="M877.216 491.808M758.528 949.984c12.512-12.512 13.248-31.872 2.048-43.776L384.096 529.696c-16.16-15.328-16.096-19.328 0-35.424L760.576 117.824c11.232-11.872 10.464-31.264-2.048-43.776-12.736-12.736-32.608-13.44-44.448-1.632L295.872 490.592C290.72 495.744 288.416 502.464 288 509.376l0 5.248c0.448 6.944 2.752 13.632 7.872 18.784l418.176 418.176C725.92 963.392 745.824 962.688 758.528 949.984z" fill="#666666"></path></g></g></svg>