<?xml version="1.0" encoding="utf-8"?>
<!-- Generator: Adobe Illustrator 19.0.0, SVG Export Plug-In . SVG Version: 6.00 Build 0)  -->
<svg version="1.1" id="图层_1" xmlns="http://www.w3.org/2000/svg" xmlns:xlink="http://www.w3.org/1999/xlink" x="0px" y="0px"
	 viewBox="0 0 32 32" style="enable-background:new 0 0 32 32;" xml:space="preserve">
<style type="text/css">
	.st0{fill:#A463CE;}
	.st1{fill:#FFFFFF;}
</style>
<circle id="XMLID_1_" class="st0" cx="16" cy="16" r="16"/>
<g>
	<g transform="scale(0.1953125, 0.1953125)">
		<path class="st1" d="M106.9,70.6c-3.4,0-6.2,2.8-6.2,6.2c0,3.4,2.8,6.2,6.2,6.2s6.2-2.8,6.2-6.2C113.2,73.4,110.4,70.6,106.9,70.6
			L106.9,70.6z M82.1,114.1c-3.6,0-7.1-0.4-10.5-1.1L57,121.7l0.2-14.4C46,100.6,38.6,89.4,38.6,76.8c0-20.6,19.5-37.3,43.5-37.3
			s43.5,16.7,43.5,37.3C125.6,97.4,106.1,114.1,82.1,114.1L82.1,114.1z M82.1,33.3c-27.4,0-49.7,19.5-49.7,43.5
			c0,13.7,7.3,25.9,18.6,33.9v22l21.8-13.2c3,0.5,6.1,0.8,9.3,0.8c27.4,0,49.7-19.5,49.7-43.5C131.8,52.8,109.5,33.3,82.1,33.3
			L82.1,33.3z M57.2,70.6c-3.4,0-6.2,2.8-6.2,6.2c0,3.4,2.8,6.2,6.2,6.2c3.4,0,6.2-2.8,6.2-6.2C63.5,73.4,60.7,70.6,57.2,70.6
			L57.2,70.6z M82.1,70.6c-3.4,0-6.2,2.8-6.2,6.2c0,3.4,2.8,6.2,6.2,6.2s6.2-2.8,6.2-6.2C88.3,73.4,85.5,70.6,82.1,70.6L82.1,70.6z"
			/>
	</g>
</g>
</svg>
