<?xml version="1.0" encoding="utf-8"?>
<!-- Generator: Adobe Illustrator 19.0.0, SVG Export Plug-In . SVG Version: 6.00 Build 0)  -->
<svg version="1.1" id="图层_1" xmlns="http://www.w3.org/2000/svg" xmlns:xlink="http://www.w3.org/1999/xlink" x="0px" y="0px"
	 viewBox="0 0 32 32" style="enable-background:new 0 0 32 32;" xml:space="preserve">
<style type="text/css">
	.st0{fill:#4EC941;}
	.st1{fill:#FFFFFF;}
</style>
<circle id="XMLID_1_" class="st0" cx="16" cy="16" r="16"/>
<g>
	<g transform="scale(0.1953125, 0.1953125)">
		<path class="st1" d="M112,35.2h-6.7h-20H51.9c-5.5,0-10,3.5-10,9v73.5c0,5.5,4.5,11,10,11H112c5.5,0,10-5.5,10-11V44.2
			C122,38.7,117.5,35.2,112,35.2z M102,41.8v22.8l-4.8-3.2c-0.6-0.4-1.2-0.6-1.9-0.6c-0.6,0-1.3,0.2-1.9,0.6l-4.8,3.2V41.8H102z
			 M48.5,117.7V44.2c0-1.8,1.5-2.4,3.3-2.4h3.3V122h-3.3C50,122,48.5,119.5,48.5,117.7z M115.3,117.7c0,1.8-1.5,4.3-3.3,4.3H61.9
			V41.8h20v29.1c0,1.2,0.7,2.4,1.8,2.9c1.1,0.6,2.4,0.5,3.4-0.2l8.2-5.4l8.2,5.4c0.6,0.4,1.2,0.6,1.9,0.6c0.5,0,1.1-0.1,1.6-0.4
			c1.1-0.6,1.8-1.7,1.8-2.9V41.8h3.3c1.8,0,3.3,0.5,3.3,2.4L115.3,117.7L115.3,117.7z"/>
	</g>
</g>
</svg>
