<?xml version="1.0" encoding="utf-8"?>
<!-- Generator: Adobe Illustrator 19.0.0, SVG Export Plug-In . SVG Version: 6.00 Build 0)  -->
<svg version="1.1" id="图层_1" xmlns="http://www.w3.org/2000/svg" xmlns:xlink="http://www.w3.org/1999/xlink" x="0px" y="0px"
	 viewBox="-12 -75 200 200" style="enable-background:new -12 -75 200 200;" xml:space="preserve">
<style type="text/css">
	.st0{fill:#FFFFFF;}
</style>
<g>
	<g transform="scale(0.1953125, 0.1953125)">
		<path class="st0" d="M279.9,441.6l35.7-35.7l109.7,109.7V67.8h50.5v447.8l109.7-109.7l35.7,35.7L450.6,612.2L279.9,441.6z
			 M603.2,331.8v-50.5h114.2c94,0,170.5-76.5,170.5-170.5c0-89.4-69.9-164-159.1-169.8l-50.2-3.4l-6.1-50
			c-13.7-112-109.1-196.4-222-196.4c-112.8,0-208.3,84.4-222,196.4l-6.1,50L172.2-59C83.1-53.1,13.2,21.5,13.2,110.9
			c0,94,76.5,170.5,170.5,170.5h114.2v50.5l-114.2,0c-121.8,0-221-99.1-221-221C-37.3,54.5-16,0.8,22.6-40.3
			c38.5-40.8,90.4-65.4,146.3-69.1l8.5-0.6l1-8.5c16.8-137.3,133.8-240.8,272.1-240.8c138.3,0,255.3,103.5,272.1,240.8l1,8.5
			l8.5,0.6c55.9,3.7,107.8,28.2,146.3,69.1c38.6,41,59.9,94.7,59.9,151.1c0,121.8-99.1,221-221,221L603.2,331.8L603.2,331.8z"/>
	</g>
</g>
</svg>
