<?xml version="1.0" encoding="utf-8"?>
<!-- Generator: Adobe Illustrator 19.0.0, SVG Export Plug-In . SVG Version: 6.00 Build 0)  -->
<svg version="1.1" id="图层_1" xmlns="http://www.w3.org/2000/svg" xmlns:xlink="http://www.w3.org/1999/xlink" x="0px" y="0px"
	 viewBox="0 0 32 32" style="enable-background:new 0 0 32 32;" xml:space="preserve">
<style type="text/css">
	.st0{fill:#e83421;}
	.st1{fill-rule:evenodd;clip-rule:evenodd;fill:#FFFFFF;}
</style>
<circle id="XMLID_1_" class="st0" cx="16" cy="16" r="16"/>
<g>
	<path class="st1" d="M9.5,23.1c0.2-1.1,0.3-2.2,0.6-3.4c0.1-0.7-0.1-1.3-0.6-1.7c-0.7-0.7-1.5-1.4-2.2-2.2
		c-0.6-0.6-0.8-1.3-0.6-2.1c0.3-0.8,0.9-1.2,1.7-1.3c0.6-0.1,1.1-0.2,1.7-0.2c1.8,0,2.8-0.9,3.4-2.6c0.2-0.6,0.5-1.2,0.9-1.7
		c0.8-1.4,2.4-1.4,3.2,0c0.5,0.9,1,1.9,1.4,2.9c0.4,0.8,0.9,1.2,1.7,1.2c1,0.1,1.9,0.3,2.9,0.4c0.8,0.1,1.4,0.5,1.6,1.3
		c0.2,0.7,0,1.4-0.5,2c-0.8,0.8-1.6,1.6-2.3,2.3c-0.5,0.5-0.7,1-0.5,1.6c0.2,1,0.4,2.1,0.6,3.2c0.3,1.7-1,2.7-2.6,2.1
		c-0.9-0.4-1.8-0.9-2.7-1.4c-0.8-0.5-1.5-0.5-2.3,0c-0.9,0.5-1.8,1-2.7,1.4C10.8,25.6,9.5,24.7,9.5,23.1L9.5,23.1z M10.4,23.2
		c0,0.8,0.5,1.2,1.4,0.9c1.1-0.5,2.2-1.1,3.2-1.6c0.7-0.4,1.3-0.4,1.9,0c1,0.5,2,1.1,3,1.6c0.4,0.2,0.8,0.4,1.2,0.1
		c0.4-0.3,0.5-0.8,0.4-1.2c-0.2-1-0.3-2-0.5-3.1c-0.2-0.9,0-1.7,0.7-2.3c0.8-0.8,1.6-1.5,2.4-2.3c0.8-0.8,0.5-1.6-0.6-1.8
		c-1-0.2-2.1-0.3-3.1-0.5c-0.9-0.1-1.5-0.5-1.8-1.3c-0.5-1-1-2-1.5-3c-0.6-1-1.3-1.1-1.8,0c-0.6,1-1,2-1.5,3.1
		c-0.4,0.7-0.9,1.1-1.7,1.2c-1,0.1-2.1,0.3-3.1,0.5c-0.5,0.1-0.9,0.2-1.1,0.7c-0.2,0.5,0.1,0.9,0.4,1.2c0.7,0.7,1.4,1.4,2.1,2.1
		c0.8,0.7,1.1,1.5,0.8,2.6C10.7,20.9,10.6,22,10.4,23.2L10.4,23.2z"/>
</g>
</svg>
