<?xml version="1.0" standalone="no"?><!DOCTYPE svg PUBLIC "-//W3C//DTD SVG 1.1//EN" "http://www.w3.org/Graphics/SVG/1.1/DTD/svg11.dtd"><svg width="200" height="200" viewBox="0 0 200 200" version="1.1" xmlns="http://www.w3.org/2000/svg" xmlns:xlink="http://www.w3.org/1999/xlink"><defs><style type="text/css"><![CDATA[
@font-face { font-family: ifont; src: url("//at.alicdn.com/t/font_1442373896_4754455.eot?#iefix") format("embedded-opentype"), url("//at.alicdn.com/t/font_1442373896_4754455.woff") format("woff"), url("//at.alicdn.com/t/font_1442373896_4754455.ttf") format("truetype"), url("//at.alicdn.com/t/font_1442373896_4754455.svg#ifont") format("svg"); }

]]></style></defs><g class="transform-group"><g transform="scale(0.1953125, 0.1953125)"><path d="M96 192l832 0c17.673 0 32-14.327 32-32s-14.327-32-32-32L96 128c-17.673 0-32 14.327-32 32S78.327 192 96 192zM928 448 96 448c-17.673 0-32 14.327-32 32s14.327 32 32 32l832 0c17.673 0 32-14.327 32-32S945.673 448 928 448zM928 768 96 768c-17.673 0-32 14.327-32 32s14.327 32 32 32l832 0c17.673 0 32-14.327 32-32S945.673 768 928 768z" fill="#272636"></path></g></g></svg>