<?xml version="1.0" encoding="utf-8"?>
<!-- Generator: Adobe Illustrator 19.0.0, SVG Export Plug-In . SVG Version: 6.00 Build 0)  -->
<svg version="1.1" id="图层_1" xmlns="http://www.w3.org/2000/svg" xmlns:xlink="http://www.w3.org/1999/xlink" x="0px" y="0px"
	 viewBox="0 0 32 32" style="enable-background:new 0 0 32 32;" xml:space="preserve">
<style type="text/css">
	.st0{fill:#56abe4;}
	.st1{fill:#FFFFFF;}
</style>
<circle id="XMLID_1_" class="st0" cx="16" cy="16" r="16"/>
<g>
	<g transform="scale(0.1953125, 0.1953125)">
		<path class="st1" d="M96.8,128.7C96.8,128.7,96.8,128.7,96.8,128.7c-1.8,0-3.6-0.7-4.7-2c-1.5-1.7-6.4-6.1-10.4-6.1
			c-4,0-8.9,4.4-10.4,6c-1.1,1.2-2.9,2-4.7,2c-0.8,0-1.7-0.2-2.4-0.5l-0.1-0.1L52,121.2l-0.1-0.1c-2.2-1.5-3.1-4.6-2-7
			c0,0,1.1-2.6,1.1-4.9c0-7.1-5.8-12.9-12.9-12.9h-0.4c0,0-0.1,0-0.1,0c-2,0-3.7-1.8-4.2-4.6c0-0.2-1-5.5-1-9.7s1-9.5,1-9.7
			c0.5-2.8,2.2-4.7,4.3-4.6h0.4c7.1,0,12.9-5.8,12.9-12.9c0-2.3-1.1-4.9-1.1-4.9c-1.1-2.5-0.2-5.5,2-7l0.1-0.1l12.8-7l0.1-0.1
			c0.7-0.3,1.5-0.5,2.4-0.5c1.8,0,3.5,0.7,4.7,1.9c1.5,1.6,6.3,5.7,10.2,5.7c3.8,0,8.6-4.1,10.1-5.6c1.1-1.2,2.9-1.9,4.6-1.9
			c0.9,0,1.7,0.2,2.4,0.5l0.1,0.1l12.4,6.9l0.1,0.1c2.2,1.5,3.1,4.6,2,7c0,0-1.1,2.6-1.1,4.9c0,7.1,5.8,12.9,12.9,12.9h0.4
			c2.1,0,3.8,1.8,4.3,4.6c0,0.2,1,5.5,1,9.7c0,4.2-1,9.5-1,9.7c-0.5,2.8-2.2,4.6-4.3,4.6h-0.4c-7.1,0-12.9,5.8-12.9,12.9
			c0,2.3,1.1,4.9,1.1,4.9c1.1,2.5,0.2,5.5-2,7l-0.1,0.1l-12.6,7l-0.1,0.1C98.4,128.5,97.6,128.7,96.8,128.7z M96.4,122.7
			c0.1,0,0.2,0.1,0.4,0.1c0,0,0,0,0,0l11.8-6.5c-0.3-0.7-1.6-3.9-1.6-7.2c0-10,7.9-18.2,17.7-18.7c0.1-0.8,0.9-5.2,0.9-8.5
			c0-3.3-0.8-7.7-0.9-8.5c-9.9-0.5-17.7-8.7-17.7-18.7c0-3.3,1.3-6.6,1.6-7.2L97,41.1c0,0,0,0,0,0c-0.2,0-0.4,0.1-0.4,0.1
			c-0.2,0.2-1.9,1.9-4.3,3.6c-3.6,2.5-6.9,3.8-10,3.8c-3.1,0-6.5-1.3-10.1-3.9c-2.4-1.7-4.1-3.5-4.3-3.7c-0.1,0-0.2-0.1-0.4-0.1
			c0,0,0,0,0,0l-12,6.6c0.3,0.7,1.6,3.9,1.6,7.2c0,10-7.9,18.2-17.7,18.7c-0.1,0.8-0.9,5.2-0.9,8.5c0,3.3,0.8,7.7,0.9,8.5
			c9.9,0.5,17.7,8.7,17.7,18.7c0,3.4-1.3,6.6-1.6,7.2l11.3,6.3c0,0,0,0,0,0c0.2,0,0.3-0.1,0.4-0.1c0.2-0.2,1.9-2,4.3-3.8
			c3.6-2.7,7.1-4,10.3-4c3.2,0,6.7,1.4,10.4,4.1C94.5,120.7,96.2,122.5,96.4,122.7z M81.7,99c-9.5,0-17.2-7.7-17.2-17.1
			c0-9.5,7.7-17.2,17.2-17.2c9.5,0,17.1,7.7,17.1,17.2C98.9,91.3,91.2,99,81.7,99z M81.7,70.6c-6.2,0-11.3,5.1-11.3,11.3
			c0,6.2,5.1,11.3,11.3,11.3c6.2,0,11.3-5.1,11.3-11.3C93,75.7,87.9,70.6,81.7,70.6z"/>
	</g>
</g>
</svg>
