<?xml version="1.0" standalone="no"?><!DOCTYPE svg PUBLIC "-//W3C//DTD SVG 1.1//EN" "http://www.w3.org/Graphics/SVG/1.1/DTD/svg11.dtd"><svg width="200" height="200" viewBox="0 0 200 200" version="1.1" xmlns="http://www.w3.org/2000/svg" xmlns:xlink="http://www.w3.org/1999/xlink"><defs><style type="text/css"><![CDATA[
@font-face { font-family: ifont; src: url("//at.alicdn.com/t/font_1442373896_4754455.eot?#iefix") format("embedded-opentype"), url("//at.alicdn.com/t/font_1442373896_4754455.woff") format("woff"), url("//at.alicdn.com/t/font_1442373896_4754455.ttf") format("truetype"), url("//at.alicdn.com/t/font_1442373896_4754455.svg#ifont") format("svg"); }

]]></style></defs><g class="transform-group"><g transform="scale(0.1953125, 0.1953125)"><path d="M512.000512 960.189695c-247.117191 0-448.185602-201.047945-448.185602-448.194812 0-247.136633 201.068412-448.184579 448.185602-448.184579 247.114121 0 448.184579 201.047945 448.184579 448.184579C960.184067 759.14175 759.114632 960.189695 512.000512 960.189695zM788.612457 809.015647c-22.412452-14.046924-49.936319-20.478404-87.392396-29.761837-43.932582-10.910491-102.580307-18.851347-97.430006-69.37709-34.158984 31.351032-92.789313 42.649356-140.40375 23.12672-15.125489-6.229888-25.305339-19.094894-36.338626-18.180058 3.053546 49.244564-56.816007 54.537104-97.449449 64.430428-39.47199 9.609869-67.870784 17.140379-90.487897 33.141818 72.226998 65.673745 167.803797 106.102526 272.889157 106.102526C618.8961 918.497131 715.957717 876.704282 788.612457 809.015647zM542.677185 260.612553c-136.434346-11.735275-203.083302 81.439824-183.337585 218.026642-5.414313 2.310625-13.313214 2.096754-14.860453 8.253988 0.366344 40.929178 8.04114 74.528414 37.987173 85.888136 14.901385 67.208704 62.395072 145.888671 146.977469 135.426389 68.320015-8.42795 105.756649-74.711586 120.596635-135.426389 28.744671-11.604292 39.045271-49.875944 36.317137-87.536682-0.60989-6.534833-10.9504-3.348258-14.859429-6.605442C696.007339 371.661741 634.243647 268.49201 542.677185 260.612553zM512.000512 105.501846c-224.154199 0-406.494061 182.359304-406.494061 406.492014 0 105.8467 40.998763 202.055902 107.526969 274.466072 7.512091-6.637164 15.4509-12.58155 24.082488-17.140379 43.462884-22.942525 100.360755-20.072151 153.59519-46.232974 0-15.409968 0-30.841426 0-46.25037-21.476127-19.400862-24.89704-51.360761-39.634696-77.621868-8.855692-15.756869-22.515806-24.623817-29.721929-41.295522-7.959276-18.371416-16.142655-42.301432-13.232372-69.376067 1.485841-13.741979 10.05603-22.433942 11.56336-34.678824 2.116197-17.090237-1.526773-34.913161 0-51.209312 8.875135-93.88732 78.130452-166.236092 168.476109-178.379667 18.72855 0 37.435611 0 56.145741 0 96.167247 15.838733 161.982208 86.895069 168.476109 191.592596 0.773619 12.285814-3.643993 25.903973-1.648546 39.645952 1.87265 12.865006 12.479219 23.940249 13.21293 37.986149 2.278903 43.524283-17.955954 79.474053-44.583404 105.715717-6.53381 31.999808-23.084765 53.987588-37.986149 77.621868 0 14.879895 0 29.741371 0 44.601824 44.50154 26.423813 104.515379 24.38948 148.649552 46.252417 8.955976 4.437056 16.570397 9.689686 23.756053 15.22782C878.795409 710.914352 918.492526 616.112196 918.492526 511.994883 918.492526 287.86115 736.152664 105.501846 512.000512 105.501846z" fill="#272636"></path></g></g></svg>