<?xml version="1.0" encoding="utf-8"?>
<!-- Generator: Adobe Illustrator 19.0.0, SVG Export Plug-In . SVG Version: 6.00 Build 0)  -->
<svg version="1.1" id="图层_1" xmlns="http://www.w3.org/2000/svg" xmlns:xlink="http://www.w3.org/1999/xlink" x="0px" y="0px"
	 viewBox="84 -84 200 200" style="enable-background:new 84 -84 200 200;" xml:space="preserve">
<style type="text/css">
	.st0{fill:#4EC941;}
</style>
<path class="st0" d="M184.5-70.6c-47.8,0-86.6,38.8-86.6,86.6c0,47.8,38.8,86.6,86.6,86.6c47.8,0,86.6-38.8,86.6-86.6
	C271.1-31.8,232.3-70.6,184.5-70.6z M204.1,12.3c-15.8,23.3-29.8,50.3-29.8,50.3l-36.3-41l9.3-10.2l22.4,21.4
	c0,0,11.2-18.6,26.1-34.5c14.9-15.8,32.6-28.9,32.6-28.9l2.8,9.3C231.1-21.3,216.2-5.4,204.1,12.3z"/>
</svg>
