<?xml version="1.0" standalone="no"?><!DOCTYPE svg PUBLIC "-//W3C//DTD SVG 1.1//EN" "http://www.w3.org/Graphics/SVG/1.1/DTD/svg11.dtd"><svg width="200" height="200" viewBox="0 0 200 200" version="1.1" xmlns="http://www.w3.org/2000/svg" xmlns:xlink="http://www.w3.org/1999/xlink"><defs><style type="text/css"><![CDATA[
@font-face { font-family: ifont; src: url("//at.alicdn.com/t/font_1442373896_4754455.eot?#iefix") format("embedded-opentype"), url("//at.alicdn.com/t/font_1442373896_4754455.woff") format("woff"), url("//at.alicdn.com/t/font_1442373896_4754455.ttf") format("truetype"), url("//at.alicdn.com/t/font_1442373896_4754455.svg#ifont") format("svg"); }

]]></style></defs><g class="transform-group"><g transform="scale(0.1953125, 0.1953125)"><path d="M510.307963 68.622914c-244.916059 0-443.47737 198.563358-443.47737 443.475324 0 244.941642 198.561311 443.478394 443.47737 443.478394 244.916059 0 443.478394-198.536752 443.478394-443.478394C953.785334 267.186272 755.222999 68.622914 510.307963 68.622914zM510.307963 915.260413c-222.658126 0-403.161153-180.503027-403.161153-403.161153 0-222.629473 180.50405-403.160129 403.161153-403.160129 222.659149 0 403.161153 180.530656 403.161153 403.160129C913.469116 734.75841 732.966089 915.260413 510.307963 915.260413zM349.043093 559.345308l114.018823 114.018823L666.68757 469.737454 552.644187 355.718631 349.043093 559.345308zM581.150428 327.211367l114.044406 114.019847 57.009412-57.009412L638.15984 270.201955 581.150428 327.211367zM287.123858 735.36216l142.550647-28.506241L315.630099 592.731696 287.123858 735.36216z" fill="#FFFFFF"></path></g></g></svg>