<?xml version="1.0" encoding="utf-8"?>
<!-- Generator: Adobe Illustrator 19.0.0, SVG Export Plug-In . SVG Version: 6.00 Build 0)  -->
<svg version="1.1" id="图层_1" xmlns="http://www.w3.org/2000/svg" xmlns:xlink="http://www.w3.org/1999/xlink" x="0px" y="0px"
	 viewBox="-12 -75 200 200" style="enable-background:new -12 -75 200 200;" xml:space="preserve">
<style type="text/css">
	.st0{fill:#FFFFFF;}
</style>
<g>
	<g transform="scale(0.1953125, 0.1953125)">
		<path class="st0" d="M34.6-192h832c17.7,0,32-14.3,32-32s-14.3-32-32-32h-832c-17.7,0-32,14.3-32,32S16.9-192,34.6-192z M866.6,64
			h-832c-17.7,0-32,14.3-32,32s14.3,32,32,32h832c17.7,0,32-14.3,32-32S884.2,64,866.6,64z M866.6,384h-832c-17.7,0-32,14.3-32,32
			c0,17.7,14.3,32,32,32h832c17.7,0,32-14.3,32-32C898.6,398.3,884.2,384,866.6,384z"/>
	</g>
</g>
</svg>
