<?xml version="1.0" encoding="utf-8"?>
<!-- Generator: Adobe Illustrator 19.0.0, SVG Export Plug-In . SVG Version: 6.00 Build 0)  -->
<svg version="1.1" id="图层_1" xmlns="http://www.w3.org/2000/svg" xmlns:xlink="http://www.w3.org/1999/xlink" x="0px" y="0px"
	 viewBox="0 0 226 50" style="enable-background:new 0 0 226 50;" xml:space="preserve">
<style type="text/css">
	.st0{fill:#FFFFFF;}
</style>
<g>
	<g>
		<path class="st0" d="M129.6,37.9h9.3v-3.8h-9.3v-2.4h1.5h7.8l0,0V28l0,0V10.2l0,0h-7.7h-10.9h-7.7l0,0v21.5l0,0h7.7h1.6v2.4h-9.4
			v3.8h9.4v7.5h-10.7H111h-2.9V34.5h2v-3.8h-2V14h2.4v-3.8H96.6V14h3.8v16.8H97v3.8h3.3v10.9h-4.4v3.8h15h0.2h29.3v-3.8h-10.8
			L129.6,37.9L129.6,37.9z M131.1,23.1V28h-1.5v-4.9H131.1z M129.6,19.3V14h1.5v5.3H129.6z M121.8,19.3h-1.6V14h1.6V19.3z
			 M121.8,23.1V28h-1.6v-4.9H121.8z"/>
		<polygon id="XMLID_28_" class="st0" points="16.4,14 18.8,14 18.8,10.2 4.5,10.2 4.5,14 8.7,14 8.7,45.4 4.5,45.4 4.5,49.2 
			19.5,49.2 19.5,45.4 16.4,45.4 		"/>
		<polygon id="XMLID_27_" class="st0" points="19.3,14 31.3,14 31.3,45.4 27.6,45.4 27.6,49.2 42.8,49.2 42.8,45.4 39.1,45.4 
			39.1,14 51.1,14 51.1,10.2 19.3,10.2 		"/>
		<polygon id="XMLID_26_" class="st0" points="69,40.4 65.9,40.4 65.9,25.9 62.1,25.9 62.1,10.2 54.3,10.2 54.3,30.8 58.2,30.8 
			58.2,40.4 54.3,40.4 54.3,44.1 69,44.1 		"/>
		<path class="st0" d="M85.5,20.7c1.4-1.8,2.7-3.7,3.9-5.9l0.4-0.8l0,0l0,0v-3.8h-20V14H82c-2.3,3.4-7.5,9.5-15,12l-0.6,0.2v8.4
			l1.1-0.4c0.2-0.1,1.9-0.6,4.3-2v2.3H77v10.9H54.3v3.8h40.4v-3.8h-10V34.5h5.4v-2.1c1,0.6,2.2,1.2,3.4,1.7l1.2,0.5v-8.5l-0.6-0.2
			C94.1,25.9,89.1,24.2,85.5,20.7z M81.6,25c1.3,1.7,3.3,3.8,5.9,5.7H74.4C76.6,29.4,79.1,27.5,81.6,25z"/>
		<path class="st0" d="M177.5,10.2h-7.8v9.1h-6.4v-9.1h-7.8v9.1h-3v-9.1h-7.8v9.1h-4v3.8h4V45l0,0c0.1,1.2,0.5,2.2,1.2,3
			c0.9,0.9,1.9,1.1,2.7,1.2l0,0h0.1c0.1,0,0.3,0,0.4,0c0.2,0,0.3,0,0.4,0h32.1v-5.9h-26.5h-0.6c-1.6-0.1-2-1.2-2.1-1.6V23.1h3v11.1
			v3v0.7h24.3v-3.8h-2.4v-11h4.3v-3.8h-4.3v-9.1H177.5z M169.8,23.1v11.1h-6.4V23.1H169.8z"/>
		<path class="st0" d="M221.8,31.8V10.2h-5.4H214h-22.5h-3.7h-4v21.5h7.8l0,0h4.6c-2.6,1.8-6.8,4-11.5,4.5l-0.8,0.1l-0.1,8.8l1-0.2
			c0.2,0,2.5-0.5,5.5-1.6v5.5h7.8v-9.5c1.9-1.3,3.9-3,5.5-4.9l0.4,0.4c2.4,2.8,4.9,4.8,7.2,6.3H209v7.8h7.8v-5c2.3,0.8,3.9,1,4,1
			l0.9,0.1v-8.6l-0.8-0.1c-6.8-0.7-11.7-3.4-13.6-4.6h6.6l0,0h7.9V31.8z M198.8,19.3h-7.3V14h7.3V19.3z M191.5,23.1h7.3V28h-7.3
			V23.1z M206.5,23.1h7.5V28h-7.5V23.1z M206.5,19.3V14h7.5v5.3H206.5z"/>
	</g>
	<g>
		<path class="st0" d="M9.3,7.2C9.1,7.3,8.5,7.4,7.8,7.4c-2.1,0-3.2-1.3-3.2-3.1c0-2.1,1.5-3.2,3.3-3.2c0.7,0,1.3,0.1,1.5,0.3
			L9.1,2.5C8.8,2.4,8.4,2.3,7.9,2.3c-1,0-1.9,0.6-1.9,2c0,1.2,0.7,2,1.9,2c0.4,0,0.9-0.1,1.2-0.2L9.3,7.2z"/>
		<path class="st0" d="M13.8,4.8h-2.2v1.4h2.5v1.1h-3.9V1.2H14v1.1h-2.4v1.3h2.2V4.8z"/>
		<path class="st0" d="M20.6,4.2c0,2-1.2,3.2-3,3.2S14.7,6,14.7,4.3c0-1.8,1.2-3.2,3-3.2C19.6,1.1,20.6,2.5,20.6,4.2z M16.2,4.3
			c0,1.2,0.6,2,1.5,2s1.5-0.9,1.5-2.1c0-1.1-0.5-2-1.5-2C16.8,2.2,16.2,3.1,16.2,4.3z"/>
		<path class="st0" d="M26,7.2c-0.2,0.1-0.8,0.3-1.6,0.3c-2.1,0-3.2-1.3-3.2-3.1c0-2.1,1.5-3.2,3.3-3.2c0.7,0,1.3,0.1,1.5,0.3
			l-0.3,1.1c-0.3-0.1-0.7-0.2-1.2-0.2c-1.1,0-1.9,0.7-1.9,2c0,1.2,0.7,2,1.9,2c0.4,0,0.9-0.1,1.2-0.2L26,7.2z"/>
		<path class="st0" d="M28.3,1.2v6.1h-1.4V1.2H28.3z"/>
		<path class="st0" d="M35,4.2c0,2-1.2,3.2-3,3.2S29.1,6,29.1,4.3c0-1.8,1.2-3.2,3-3.2C34,1.1,35,2.5,35,4.2z M30.6,4.3
			c0,1.2,0.6,2,1.5,2c0.9,0,1.5-0.9,1.5-2.1c0-1.1-0.5-2-1.5-2C31.2,2.2,30.6,3.1,30.6,4.3z"/>
		<path class="st0" d="M35.4,6.6c0-0.5,0.3-0.8,0.8-0.8S37,6.1,37,6.6s-0.3,0.8-0.8,0.8C35.8,7.4,35.4,7.1,35.4,6.6z"/>
		<path class="st0" d="M42.4,7.2c-0.2,0.1-0.8,0.3-1.6,0.3c-2.1,0-3.2-1.3-3.2-3.1c0-2.1,1.5-3.2,3.3-3.2c0.7,0,1.3,0.1,1.5,0.3
			l-0.3,1.1c-0.3-0.1-0.7-0.2-1.2-0.2c-1.1,0-1.9,0.7-1.9,2c0,1.2,0.7,2,1.9,2c0.4,0,0.9-0.1,1.2-0.2L42.4,7.2z"/>
		<path class="st0" d="M48.6,4.2c0,2-1.2,3.2-3,3.2S42.7,6,42.7,4.3c0-1.8,1.2-3.2,3-3.2C47.6,1.1,48.6,2.5,48.6,4.2z M44.2,4.3
			c0,1.2,0.6,2,1.5,2s1.5-0.9,1.5-2.1c0-1.1-0.5-2-1.5-2C44.8,2.2,44.2,3.1,44.2,4.3z"/>
		<path class="st0" d="M54.7,5c0-0.7-0.1-1.6-0.1-2.5l0,0c-0.2,0.8-0.5,1.6-0.7,2.4l-0.7,2.4h-1.1l-0.7-2.4
			c-0.2-0.7-0.4-1.6-0.6-2.4l0,0c0,0.8-0.1,1.8-0.1,2.5l-0.1,2.3h-1.3l0.4-6.1h1.8l0.6,2c0.2,0.7,0.4,1.5,0.5,2.2l0,0
			c0.2-0.7,0.4-1.5,0.6-2.2l0.6-2h1.8l0.3,6.1h-1.3L54.7,5z"/>
		<path class="st0" d="M57,6.6c0-0.5,0.3-0.8,0.8-0.8s0.8,0.3,0.8,0.8s-0.3,0.8-0.8,0.8S57,7.1,57,6.6z"/>
		<path class="st0" d="M64,7.2c-0.2,0.1-0.8,0.3-1.6,0.3c-2.1,0-3.2-1.3-3.2-3.1c0-2.1,1.5-3.2,3.3-3.2c0.7,0,1.3,0.1,1.5,0.3
			l-0.3,1.1c-0.3-0.1-0.7-0.2-1.2-0.2c-1.1,0-1.9,0.7-1.9,2c0,1.2,0.7,2,1.9,2c0.4,0,0.9-0.1,1.2-0.2L64,7.2z"/>
		<path class="st0" d="M64.9,7.3V1.2h1.6l1.3,2.2c0.4,0.6,0.7,1.4,1,2.1l0,0c-0.1-0.8-0.1-1.6-0.1-2.5V1.2H70v6.1h-1.4L67.2,5
			c-0.4-0.7-0.8-1.4-1.1-2.2l0,0c0,0.8,0.1,1.7,0.1,2.7v1.8H64.9z"/>
	</g>
</g>
</svg>
