<?xml version="1.0" encoding="utf-8"?>
<!-- Generator: Adobe Illustrator 19.0.0, SVG Export Plug-In . SVG Version: 6.00 Build 0)  -->
<svg version="1.1" id="图层_1" xmlns="http://www.w3.org/2000/svg" xmlns:xlink="http://www.w3.org/1999/xlink" x="0px" y="0px"
	 viewBox="84 -84 200 200" style="enable-background:new 84 -84 200 200;" xml:space="preserve">
<style type="text/css">
	.st0{fill:#FFFFFF;}
</style>
<g>
	<g transform="scale(0.1953125, 0.1953125)">
		<path class="st0" d="M942.1,530.1c-247.2,0-448.2-201.1-448.2-448.2S695-366.3,942.1-366.3s448.2,201,448.2,448.2
			C1390.2,329,1189.2,530.1,942.1,530.1z M1218.7,378.9c-22.4-14-49.9-20.5-87.4-29.8c-43.9-10.9-102.6-18.9-97.4-69.4
			c-34.2,31.4-92.8,42.6-140.4,23.1c-15.1-6.2-25.3-19.1-36.3-18.2c3.1,49.2-56.8,54.5-97.4,64.4c-39.5,9.6-67.9,17.1-90.5,33.1
			c72.2,65.7,167.8,106.1,272.9,106.1C1049,488.4,1146,446.6,1218.7,378.9z M972.7-169.5c-136.4-11.7-203.1,81.4-183.3,218
			c-5.4,2.3-13.3,2.1-14.9,8.3c0.4,40.9,8,74.5,38,85.9c14.9,67.2,62.4,145.9,147,135.4c68.3-8.4,105.8-74.7,120.6-135.4
			c28.7-11.6,39-49.9,36.3-87.5c-0.6-6.5-11-3.3-14.9-6.6C1126.1-58.4,1064.3-161.6,972.7-169.5z M942.1-324.6
			c-224.2,0-406.5,182.4-406.5,406.5c0,105.8,41,202.1,107.5,274.5c7.5-6.6,15.5-12.6,24.1-17.1c43.5-22.9,100.4-20.1,153.6-46.2
			c0-15.4,0-30.8,0-46.3c-21.5-19.4-24.9-51.4-39.6-77.6c-8.9-15.8-22.5-24.6-29.7-41.3c-8-18.4-16.1-42.3-13.2-69.4
			c1.5-13.7,10.1-22.4,11.6-34.7c2.1-17.1-1.5-34.9,0-51.2c8.9-93.9,78.1-166.2,168.5-178.4c18.7,0,37.4,0,56.1,0
			c96.2,15.8,162,86.9,168.5,191.6c0.8,12.3-3.6,25.9-1.6,39.6c1.9,12.9,12.5,23.9,13.2,38c2.3,43.5-18,79.5-44.6,105.7
			c-6.5,32-23.1,54-38,77.6c0,14.9,0,29.7,0,44.6c44.5,26.4,104.5,24.4,148.6,46.3c9,4.4,16.6,9.7,23.8,15.2
			c64.6-72,104.3-166.8,104.3-270.9C1348.6-142.2,1166.2-324.6,942.1-324.6z"/>
	</g>
</g>
</svg>
